<?xml version="1.0" encoding="utf-8"?>
<!-- Generator: Adobe Illustrator 16.0.0, SVG Export Plug-In . SVG Version: 6.00 Build 0)  -->
<!DOCTYPE svg PUBLIC "-//W3C//DTD SVG 1.1//EN" "http://www.w3.org/Graphics/SVG/1.1/DTD/svg11.dtd">
<svg version="1.1" id="Layer_1" xmlns="http://www.w3.org/2000/svg" xmlns:xlink="http://www.w3.org/1999/xlink" x="0px" y="0px"
	 width="512px" height="512px" viewBox="0 0 512 512" enable-background="new 0 0 512 512" xml:space="preserve">
<path fill="#FF7726" stroke="#FF7726" stroke-width="5.2008" stroke-linecap="round" stroke-linejoin="round" stroke-miterlimit="10" d="
	M466.436,273.451l0.146-0.168c0,0-0.102,0.03-0.157,0.05c-0.07-0.933-0.102-1.887-0.188-2.82l-3.715,4.044
	c-19.367,5.922-106.21,30.703-207.016,31.824C140.975,307.65,44.5,273.283,44.5,273.283c-0.417,5.526-0.627,11.127-0.627,16.765
	c0,117.212,92.097,212.446,206.687,215.12l-0.117,0.132h5.042c116.869,0,211.609-96.366,211.609-215.252
	C467.094,284.462,466.846,278.92,466.436,273.451z"/>
<path fill="#FF7726" stroke="#FF7726" stroke-width="5.2008" stroke-linecap="round" stroke-linejoin="round" stroke-miterlimit="10" d="
	M442.186,199.74l-1.507-2.4c0,0-51.607-81.71-169.337-30.366c-14.017,4.759-29.888,8.075-47.556,0.137
	c-17.66-7.943-38.586-19.68-61.536-19.68c-29.968,0-57.015,12.427-76.339,32.396l0.01-0.018c0,0-7.837,7.048-17.141,20.557
	C68.781,200.366,250.024,277.824,442.186,199.74z"/>
<path fill="#FBE3D4" stroke="#FFFFFF" stroke-width="4" stroke-miterlimit="10" d="M402.862,294.635
	c0.087,0.351,0.162,0.696,0.244,1.041c1.02,4.536,1.538,9.199,1.538,13.923c0,53.155-66.775,96.255-149.16,96.255
	c-82.378,0-149.161-43.1-149.161-96.255c0-4.653,0.506-9.23,1.495-13.711l0.186-1.253"/>
<g>
	<path fill="#231F20" stroke="#231F20" stroke-width="5.2008" stroke-miterlimit="10" d="M214.866,344.953
		c0,10.656-7.174,19.301-16.021,19.301c-8.849,0-16.021-8.645-16.021-19.301c0-10.646,7.172-19.286,16.021-19.286
		C207.691,325.667,214.866,334.308,214.866,344.953z"/>
	<path fill="#FFFFFF" d="M203.888,334.348c2.786,0,5.039,3.457,5.039,7.714c0,4.236-2.252,7.687-5.039,7.687
		c-2.786,0-5.044-3.45-5.044-7.687C198.844,337.805,201.103,334.348,203.888,334.348z"/>
	<path fill="#231F20" stroke="#231F20" stroke-width="5.2008" stroke-miterlimit="10" d="M328.872,344.953
		c0,10.656-7.175,19.301-16.019,19.301c-8.85,0-16.019-8.645-16.019-19.301c0-10.646,7.169-19.286,16.019-19.286
		C321.697,325.667,328.872,334.308,328.872,344.953z"/>
	<path fill="#FFFFFF" d="M317.902,334.348c2.78,0,5.028,3.457,5.028,7.714c0,4.236-2.248,7.687-5.028,7.687
		c-2.795,0-5.049-3.45-5.049-7.687C312.854,337.805,315.107,334.348,317.902,334.348z"/>
</g>
<path fill="#EECDB6" stroke="#EECDB6" stroke-width="2.6004" stroke-linecap="round" stroke-linejoin="round" stroke-miterlimit="10" d="
	M278.355,365.094c-5.09-2.156-13.232-3.558-22.41-3.558c-9.295,0-17.526,1.432-22.607,3.639c0,0,16.801,9.863,22.516,10.077
	C261.565,375.464,278.355,365.094,278.355,365.094z"/>
<g>
	
		<path fill="#FFFFFF" stroke="#FFFFFF" stroke-width="5.2008" stroke-linecap="round" stroke-linejoin="round" stroke-miterlimit="10" d="
		M252.967,233.751c57.639,0.429,123.552-8.075,190.955-34.828c0.096-0.041,2.774,4.564,2.774,4.564
		c11.018,21.197,18.604,44.428,22.018,68.993v5.091c-78.177,25.437-152.009,33.99-215.754,34.052"/>
	
		<path fill="#FFFFFF" stroke="#FFFFFF" stroke-width="5.2008" stroke-linecap="round" stroke-linejoin="round" stroke-miterlimit="10" d="
		M258.001,233.751c-57.642,0.429-123.546-8.075-190.96-34.828c-0.097-0.041-2.773,4.564-2.773,4.564
		c-11.008,21.197-18.597,44.428-22.011,68.993v5.091c78.171,25.437,151.998,33.99,215.755,34.052"/>
</g>
<g>
	<path fill="#FF7726" d="M235.023,141.903c-1.604-35.876,11.285-69.024,33.448-93.854c-3.237-12.462-8.804-24.546-16.825-35.598
		c-2.05-2.831-4.219-5.52-6.485-8.085c-40.91,35.767-48.516,97.48-15.98,142.31c2.055,2.826,4.239,5.521,6.494,8.083
		C235.852,154.599,235.215,146.086,235.023,141.903z"/>
	<path fill="#FF7726" d="M238.838,141.85c0.142,4.346,0.507,8.644,1.045,12.857c67.074-8.248,117.972-66.444,115.8-135.302
		c-0.142-4.338-0.498-8.625-1.046-12.85C287.564,14.804,236.654,73.002,238.838,141.85z"/>
</g>
</svg>
