<?xml version="1.0" encoding="utf-8"?>
<!-- Generator: Adobe Illustrator 19.1.0, SVG Export Plug-In . SVG Version: 6.00 Build 0)  -->
<svg version="1.0" id="Layer_1" xmlns="http://www.w3.org/2000/svg" xmlns:xlink="http://www.w3.org/1999/xlink" x="0px" y="0px"
	 viewBox="0 0 1000 667" enable-background="new 0 0 1000 667" xml:space="preserve">
<path fill-rule="evenodd" clip-rule="evenodd" d="M804.5,416.5h53.5v5.7c-1.6-0.5-3.3-0.8-5.1-0.8h-37.1v46.6h35.9
	c2.4,0,4.5-0.3,6.4-0.8l0,5.7c-1.5-0.3-3.6-0.4-6.2-0.4h-36v49h36.1c0.9-0.1,3-0.3,6.1-0.8l0,6.3h-53.4c0.3-1.8,0.4-3.6,0.4-5.2
	V421.8C805.1,419.6,804.9,417.8,804.5,416.5 M728.8,470.2h11.5c5.9,0,11.3-1.3,16.1-4c7.8-4.4,11.8-11.1,11.8-20.2
	c0-4.1-0.9-7.9-2.7-11.4c-1.8-3.5-4.3-6.3-7.5-8.5c-4.6-3.1-11-4.6-19.4-4.6h-9.9V470.2z M728.8,474.4v47.5c0,1.7,0.2,3.4,0.6,5.2
	h-11.9c0.4-1.8,0.6-3.5,0.6-5.2V421.7c0-1.7-0.2-3.4-0.6-5.2h25.1c7.2,0,13.6,1.2,19.1,3.5c5.1,2.1,9.3,5.2,12.4,9.5
	c3.4,4.6,5.1,9.9,5.1,15.9c0,8.7-3.1,15.6-9.3,20.5c-6.2,4.9-15.3,7.8-27.3,8.5l45,48.8c1.3,1.4,2.9,2.7,5,3.9H776
	c-0.6-1.3-1.7-2.8-3.2-4.4L728.8,474.4z M635.5,485h43.8L657,427.4L635.5,485z M634.1,489.5l-12.6,33.4c-0.3,0.9-0.5,2.3-0.6,4.2
	h-6.6c0.9-1.8,1.6-3.2,2-4.2l38.2-102.9c0.3-0.7,0.5-1.8,0.8-3.4h9.8c0.1,1.1,0.4,2,0.7,2.8l39.6,103.6c0.4,1,1.2,2.4,2.4,4.2h-13
	c-0.1-1.4-0.4-2.8-0.9-4.2l-12.6-33.4H634.1z M553,428.4l-27.1,94.5c-0.2,0.7-0.5,2.1-0.7,4.2H515c0-1.8-0.2-3.7-0.7-5.6l-27-100.3
	c-0.4-1.5-0.9-3-1.4-4.6h11c0,0.2,0,0.3,0,0.3c0,0.4,0.3,1.5,0.7,3.4l25.5,94.3l26.8-93.4c0.4-1.7,0.7-2.9,0.7-3.6
	c0-0.2,0-0.6-0.1-1.1h10.8c0,0.3,0,0.5,0,0.6c0,0.9,0.2,2.1,0.7,3.6l27.9,93.9l25.2-93.9c0.4-1.7,0.7-3.1,0.7-4.1h6
	c-0.2,0.6-0.6,2-1.4,4.1l-27.5,102.2c-0.2,0.9-0.5,2.3-0.9,4.2h-10.3c-0.1-1.7-0.4-3.6-0.9-5.6L553,428.4z M397.4,416.5h79.5v6.2
	c-3.1-0.5-5.6-0.7-7.5-0.7h-26.7v99.8c0,1.7,0.2,3.4,0.6,5.2h-11.9c0.4-1.8,0.6-3.5,0.6-5.2V422h-27.5c-2.2,0-4.6,0.2-7.2,0.7V416.5
	z M333.7,416.5h52.5v5.4c-2-0.3-4.1-0.5-6.2-0.5H345v47.1h30.7c1.7,0,3.6-0.2,5.5-0.6v5.7c-1.6-0.4-3.5-0.6-5.7-0.6H345v48.8
	c0,1.7,0.2,3.4,0.6,5.2h-11.9c0.4-1.8,0.6-3.5,0.6-5.2V421.6C334.3,420,334.1,418.3,333.7,416.5z M267,420.6
	c-14.5,0-25.3,5.1-32.6,15.2c-6.5,9-9.7,20.7-9.7,35.2c0,15.5,3.2,27.8,9.7,36.9c7.2,10.1,18.3,15.1,33.3,15.1
	c14,0,24.8-4.8,32.2-14.3c6.9-8.9,10.3-21.3,10.3-37c0-15.9-3.4-28.2-10.3-36.9c-3.9-5-8.4-8.5-13.6-10.7
	C281,421.8,274.6,420.6,267,420.6z M267.6,415.1c17,0,30.3,4.8,39.8,14.5c9.9,10,14.8,24,14.8,42.1c0,18.2-4.9,32.3-14.8,42.4
	c-9.4,9.6-22.6,14.5-39.5,14.5c-18,0-31.7-5.1-41-15.2c-9.3-10.2-14-24.4-14-42.6c0-17.4,4.9-31.1,14.8-41.2
	C237,420.1,250.3,415.2,267.6,415.1z M137.5,520.3l3-9.1c2.7,2.3,5,4.1,7,5.4c5.8,3.9,12.3,5.8,19.4,5.8c8.2,0,14.7-2.5,19.4-7.4
	c3.9-4.1,5.9-9.2,5.9-15.1c0-7.1-2.9-12.9-8.8-17.5c-2.5-2-8.4-5.2-17.8-9.8c-9.2-4.6-15.9-8.8-19.8-12.6c-5-4.9-7.5-10.7-7.5-17.4
	c0-5.4,1.7-10.4,5-14.9c6.3-8.5,16.1-12.8,29.6-12.8c7.9,0,15.9,1.8,24.1,5.6l-2.9,7.6c-8.1-5.1-15.8-7.7-22.9-7.7
	c-7.3,0-13,2.2-17.2,6.5c-3.5,3.6-5.3,8-5.3,13c0,5,1.7,9.2,5.1,12.6c3.4,3.5,9.8,7.5,19.3,12c6.4,3.1,11,5.6,14,7.4
	c2.9,1.8,5.3,3.7,7.3,5.7c5.4,5.7,8.2,12.3,8.2,19.8c0,5.7-1.6,10.9-4.8,15.9c-6.5,10-17,15.1-31.5,15.1
	C156.6,528.5,147,525.8,137.5,520.3z"/>
<path fill-rule="evenodd" clip-rule="evenodd" d="M543.3,371.6l6.6-20.3c5.8,5,10.9,9,15.1,12c12.5,8.6,26.5,12.9,42,12.9
	c17.8,0,31.8-5.4,41.8-16.3c8.5-9.2,12.7-20.3,12.7-33.4c0-15.7-6.3-28.6-18.9-38.7c-5.3-4.3-18.1-11.6-38.3-21.7
	c-20-10.2-34.3-19.4-42.9-27.8c-10.8-10.8-16.2-23.6-16.2-38.6c0-12.1,3.6-23.1,10.7-33c13.6-18.9,34.9-28.3,64-28.3
	c17.1,0,34.4,4.1,52.1,12.4l-6.3,16.9c-17.6-11.4-34.1-17.1-49.5-17.1c-15.8,0-28.2,4.8-37.2,14.5c-7.6,8-11.5,17.6-11.5,28.7
	c0,11,3.7,20.3,11.1,28c7.4,7.6,21.2,16.5,41.6,26.6c13.8,6.9,23.8,12.4,30.2,16.3c6.3,3.9,11.5,8.1,15.8,12.7
	c11.7,12.7,17.6,27.2,17.6,43.8c0,12.5-3.5,24.2-10.4,35.1c-14.1,22.2-36.7,33.4-68,33.4C584.7,389.7,563.9,383.6,543.3,371.6
	 M167.8,262.9h29.1c14.4,0,25.9-1.9,34.5-5.8c9.3-4,16.7-10.4,22-19c5.8-9.4,8.8-19.9,8.8-31.4c0-16.7-5.4-29.9-16.3-39.6
	c-10.9-9.7-25.6-14.5-44.2-14.5l-33.8,0V262.9z M431.9,252.8l74.2,0c-0.7,4-1.1,7.9-1.1,11.5v95c0.1,4.8,0.9,9.2,2.4,13.2
	c-19.4,6.9-34.6,11.4-45.5,13.6c-11,2.3-23,3.4-36.2,3.4c-35.2,0-62.7-10.8-82.6-32.2c-21.8-23.8-32.7-55.1-32.7-94
	c0-42.2,13-74.7,39.1-97.5c20.9-18.3,48.4-27.4,82.7-27.4c11.4,0,21.8,1,31.2,2.9c9.4,2,21,5.6,34.8,10.9v21.3
	c-24.1-14.3-47.5-21.5-70-21.5c-25.8,0-47.2,8.8-64,26.2c-9.9,10.3-16.9,21.6-20.9,34c-4.8,15.4-7.3,32.7-7.3,51.6
	c0,13,1.4,25.9,4.2,38.6c2.8,12.7,6.6,23.1,11.3,31.1c9.4,16.5,23.3,28.4,41.6,35.7c11.7,4.5,24.4,6.8,38.2,6.8
	c17.9,0,34.7-4.3,50.8-13.1l-0.1-101.8h-50V252.8z M167.8,273.8v101c0,3.8,0.4,7.7,1.3,11.6l-25.7,0c0.9-3.9,1.3-7.8,1.3-11.6V153.6
	c0-3.9-0.4-7.8-1.3-11.9h65.3c16.6,0,31.6,3.5,45.1,10.4c21.4,11,32.1,28.8,32.1,53.2c0,19.6-6.8,35.4-20.5,47.3
	c-15.9,14.1-38.3,21.2-67.3,21.2H167.8z"/>
<rect x="716" y="142.9" fill-rule="evenodd" clip-rule="evenodd" fill="#F4762B" width="146.5" height="240.3"/>
</svg>
