<?xml version="1.0" encoding="utf-8"?>
<!-- Generator: Adobe Illustrator 20.1.0, SVG Export Plug-In . SVG Version: 6.00 Build 0)  -->
<svg version="1.1" id="Layer_1" xmlns="http://www.w3.org/2000/svg" xmlns:xlink="http://www.w3.org/1999/xlink" x="0px" y="0px"
	 viewBox="0 0 130.5 17.4" style="enable-background:new 0 0 130.5 17.4;" xml:space="preserve">
<style type="text/css">
	.st0{fill:#808285;}
	.st1{fill:#F5A0A5;}
	.st2{fill-rule:evenodd;clip-rule:evenodd;fill:#010101;}
	.st3{fill-rule:evenodd;clip-rule:evenodd;fill:#F4772B;}
</style>
<g>
	<g>
		<path class="st0" d="M0.6,11.8H0V2.4h0.7l2.1,4l0.8,1.7l0.8-1.7l2.1-4h0.6v9.3H6.5V6.3l0.1-2.9L5.9,4.9L4,8.7H3.3L1.2,4.7L0.5,3.4
			l0.1,2.9V11.8z"/>
		<path class="st0" d="M13.5,11.8l-0.2-1h-0.1c-0.5,0.6-1.1,1.1-2.2,1.1c-1.3,0-2.1-0.8-2.1-2c0-1.4,0.9-2.2,3-2.2
			c0.4,0,0.9,0,1.4,0.1V7.3c0-1.5-0.5-2.1-1.8-2.1c-0.6,0-1.2,0.2-1.8,0.4V5c0.6-0.3,1.2-0.4,1.8-0.4c1.7,0,2.5,0.7,2.5,2.8v4.4
			H13.5z M13.3,8.4c-0.5-0.1-1-0.1-1.3-0.1c-1.6,0-2.4,0.5-2.4,1.7c0,0.9,0.6,1.4,1.5,1.4c0.9,0,1.6-0.4,2.2-1.3V8.4z"/>
		<path class="st0" d="M20.3,5.9l-0.1-1.4V1.8h0.6v10h-0.4l-0.2-1h-0.1c-0.5,0.7-1.2,1.1-2.1,1.1c-1.6,0-2.6-1.3-2.6-3.7
			c0-2.3,1-3.6,2.5-3.6C19,4.6,19.7,5,20.3,5.9L20.3,5.9z M18.2,11.4c0.9,0,1.6-0.5,2.1-1.2V6.6c-0.5-0.8-1.2-1.4-2.1-1.4
			c-1.2,0-2,0.9-2,3C16.2,10.3,16.9,11.4,18.2,11.4z"/>
		<path class="st0" d="M23.2,8.4c0,1.8,1,2.9,2.4,2.9c0.7,0,1.3-0.1,2-0.4v0.6c-0.6,0.2-1.2,0.3-2,0.3c-1.9,0-3-1.3-3-3.5
			c0-2.4,1.1-3.8,2.9-3.8c1.6,0,2.6,1.2,2.6,3.3v0.5H23.2z M23.3,7.9h4.2c0-1.8-0.8-2.7-2-2.7C24.2,5.2,23.4,6.1,23.3,7.9z"/>
		<path class="st0" d="M41.4,4.7l-2,7.1h-0.7l-0.9-3.5l-0.6-2.7l-0.7,2.7l-1,3.5H35l-2-7.1h0.7l1,3.4l0.4,1.4l0.3,1.4h0.1
			c0.1-0.3,0.2-0.8,0.3-1.4l0.3-1.2l1-3.6h0.6l0.9,3.6l0.3,1.3c0.2,0.7,0.3,1.2,0.3,1.3h0.1l0.4-1.4l1.3-4.8H41.4z"/>
		<path class="st0" d="M42.6,1.8h0.6V3h-0.6V1.8z M43.2,11.8h-0.6V4.7h0.6V11.8z"/>
		<path class="st0" d="M46.3,4.7h1.9v0.6h-1.9v4.6c0,1.1,0.3,1.4,1.1,1.4c0.4,0,0.7,0,0.9-0.1v0.6c-0.3,0.1-0.6,0.1-1,0.1
			c-1.1,0-1.7-0.4-1.7-1.9V5.3h-1V5l1-0.3l0.4-1.5h0.3V4.7z"/>
		<path class="st0" d="M54.5,11.8h-0.6V7.2c0-1.3-0.5-2-1.4-2c-0.8,0-1.6,0.6-2.1,1.3v5.3h-0.6v-10h0.6v2.9l-0.1,1.1h0.1
			c0.7-0.9,1.3-1.1,2.3-1.2c1.3,0,1.9,0.8,1.9,2.6V11.8z"/>
		<path class="st1" d="M66.6,12.8c-0.1,0-0.3,0-0.3-0.1l-4.9-4.7c-0.1,0-0.1-0.1-0.2-0.2c-0.1-0.1-0.2-0.3-0.4-0.5
			c-0.2-0.2-0.4-0.5-0.5-0.8c-0.2-0.3-0.3-0.6-0.4-0.9c-0.1-0.4-0.2-0.7-0.2-1.1c0-1.1,0.3-2,1-2.7c0.7-0.6,1.6-1,2.7-1
			c0.3,0,0.7,0.1,1,0.2c0.3,0.1,0.6,0.3,0.9,0.5c0.3,0.2,0.5,0.4,0.7,0.5c0.2,0.2,0.4,0.3,0.6,0.5c0.2-0.2,0.4-0.4,0.6-0.5
			c0.2-0.2,0.5-0.3,0.7-0.5c0.3-0.2,0.6-0.3,0.9-0.5c0.3-0.1,0.7-0.2,1-0.2c1.2,0,2.1,0.3,2.7,1c0.7,0.6,1,1.5,1,2.7
			c0,1.2-0.6,2.3-1.8,3.5l-4.9,4.7C66.8,12.7,66.7,12.8,66.6,12.8z"/>
		<path class="st0" d="M78.7,10.8l-0.2,1h-0.4v-10h0.6v2.7l-0.1,1.4h0c0.5-0.8,1.3-1.3,2.2-1.3c1.6,0,2.5,1.3,2.5,3.6
			s-1,3.7-2.6,3.7C79.9,11.9,79.2,11.4,78.7,10.8L78.7,10.8z M80.9,5.2c-0.9,0-1.7,0.6-2.1,1.4v3.6c0.4,0.6,1.1,1.2,2.1,1.2
			c1.3,0,2-1.1,2-3.2C82.8,6.3,82.2,5.2,80.9,5.2z"/>
		<path class="st0" d="M83.7,15v-0.6c0.3,0.1,0.6,0.1,0.9,0.1c0.7,0,1.1-0.3,1.6-1.5l0.5-1.3l-2.5-7.1h0.7l1.8,5.1
			c0.1,0.3,0.2,0.7,0.3,1.2H87c0-0.3,0.2-0.7,0.4-1.2l1.8-5.1h0.7l-3.1,8.4c-0.5,1.3-1,2-2.1,2C84.3,15.2,84,15.1,83.7,15z"/>
	</g>
	<g>
		<path class="st2" d="M127.9,12.4h2.4v0.3c-0.1,0-0.1,0-0.2,0h-1.7v2.1h1.6c0.1,0,0.2,0,0.3,0l0,0.3c-0.1,0-0.2,0-0.3,0h-1.6v2.2
			h1.6c0,0,0.1,0,0.3,0l0,0.3h-2.4c0-0.1,0-0.2,0-0.2v-4.5C127.9,12.6,127.9,12.5,127.9,12.4 M124.5,14.8h0.5c0.3,0,0.5-0.1,0.7-0.2
			c0.4-0.2,0.5-0.5,0.5-0.9c0-0.2,0-0.4-0.1-0.5c-0.1-0.2-0.2-0.3-0.3-0.4c-0.2-0.1-0.5-0.2-0.9-0.2h-0.4V14.8z M124.5,15v2.1
			c0,0.1,0,0.2,0,0.2H124c0-0.1,0-0.2,0-0.2v-4.5c0-0.1,0-0.2,0-0.2h1.1c0.3,0,0.6,0.1,0.9,0.2c0.2,0.1,0.4,0.2,0.6,0.4
			c0.2,0.2,0.2,0.4,0.2,0.7c0,0.4-0.1,0.7-0.4,0.9c-0.3,0.2-0.7,0.3-1.2,0.4l2,2.2c0.1,0.1,0.1,0.1,0.2,0.2h-0.7
			c0-0.1-0.1-0.1-0.1-0.2L124.5,15z M120.3,15.5h2l-1-2.6L120.3,15.5z M120.3,15.7l-0.6,1.5c0,0,0,0.1,0,0.2h-0.3
			c0-0.1,0.1-0.1,0.1-0.2l1.7-4.6c0,0,0-0.1,0-0.2h0.4c0,0,0,0.1,0,0.1l1.8,4.6c0,0,0.1,0.1,0.1,0.2H123c0-0.1,0-0.1,0-0.2l-0.6-1.5
			H120.3z M116.6,13l-1.2,4.2c0,0,0,0.1,0,0.2h-0.5c0-0.1,0-0.2,0-0.2l-1.2-4.5c0-0.1,0-0.1-0.1-0.2h0.5c0,0,0,0,0,0
			c0,0,0,0.1,0,0.2l1.1,4.2l1.2-4.2c0-0.1,0-0.1,0-0.2c0,0,0,0,0,0h0.5c0,0,0,0,0,0c0,0,0,0.1,0,0.2l1.2,4.2l1.1-4.2
			c0-0.1,0-0.1,0-0.2h0.3c0,0,0,0.1-0.1,0.2l-1.2,4.6c0,0,0,0.1,0,0.2h-0.5c0-0.1,0-0.2,0-0.2L116.6,13z M109.7,12.4h3.6v0.3
			c-0.1,0-0.3,0-0.3,0h-1.2v4.5c0,0.1,0,0.2,0,0.2h-0.5c0-0.1,0-0.2,0-0.2v-4.5H110c-0.1,0-0.2,0-0.3,0V12.4z M106.8,12.4h2.3v0.2
			c-0.1,0-0.2,0-0.3,0h-1.6v2.1h1.4c0.1,0,0.2,0,0.2,0V15c-0.1,0-0.2,0-0.3,0h-1.4v2.2c0,0.1,0,0.2,0,0.2h-0.5c0-0.1,0-0.2,0-0.2
			v-4.5C106.8,12.6,106.8,12.5,106.8,12.4z M103.8,12.6c-0.6,0-1.1,0.2-1.5,0.7c-0.3,0.4-0.4,0.9-0.4,1.6c0,0.7,0.1,1.2,0.4,1.7
			c0.3,0.5,0.8,0.7,1.5,0.7c0.6,0,1.1-0.2,1.4-0.6c0.3-0.4,0.5-1,0.5-1.7c0-0.7-0.2-1.3-0.5-1.7c-0.2-0.2-0.4-0.4-0.6-0.5
			C104.5,12.7,104.2,12.6,103.8,12.6z M103.9,12.4c0.8,0,1.4,0.2,1.8,0.6c0.4,0.4,0.7,1.1,0.7,1.9c0,0.8-0.2,1.4-0.7,1.9
			c-0.4,0.4-1,0.6-1.8,0.6c-0.8,0-1.4-0.2-1.8-0.7c-0.4-0.5-0.6-1.1-0.6-1.9c0-0.8,0.2-1.4,0.7-1.8
			C102.5,12.6,103.1,12.4,103.9,12.4z M98,17.1l0.1-0.4c0.1,0.1,0.2,0.2,0.3,0.2c0.3,0.2,0.5,0.3,0.9,0.3c0.4,0,0.7-0.1,0.9-0.3
			c0.2-0.2,0.3-0.4,0.3-0.7c0-0.3-0.1-0.6-0.4-0.8c-0.1-0.1-0.4-0.2-0.8-0.4c-0.4-0.2-0.7-0.4-0.9-0.6c-0.2-0.2-0.3-0.5-0.3-0.8
			c0-0.2,0.1-0.5,0.2-0.7c0.3-0.4,0.7-0.6,1.3-0.6c0.4,0,0.7,0.1,1.1,0.2l-0.1,0.3c-0.4-0.2-0.7-0.3-1-0.3c-0.3,0-0.6,0.1-0.8,0.3
			c-0.2,0.2-0.2,0.4-0.2,0.6c0,0.2,0.1,0.4,0.2,0.6c0.2,0.2,0.4,0.3,0.9,0.5c0.3,0.1,0.5,0.2,0.6,0.3c0.1,0.1,0.2,0.2,0.3,0.3
			c0.2,0.3,0.4,0.6,0.4,0.9c0,0.3-0.1,0.5-0.2,0.7c-0.3,0.4-0.8,0.7-1.4,0.7C98.9,17.4,98.5,17.3,98,17.1z M116.2,10.4l0.3-0.9
			c0.3,0.2,0.5,0.4,0.7,0.5c0.6,0.4,1.2,0.6,1.9,0.6c0.8,0,1.4-0.2,1.9-0.7c0.4-0.4,0.6-0.9,0.6-1.5c0-0.7-0.3-1.3-0.8-1.7
			c-0.2-0.2-0.8-0.5-1.7-1c-0.9-0.5-1.5-0.9-1.9-1.2c-0.5-0.5-0.7-1.1-0.7-1.7c0-0.5,0.2-1,0.5-1.5c0.6-0.8,1.6-1.3,2.9-1.3
			c0.8,0,1.5,0.2,2.3,0.6l-0.3,0.8c-0.8-0.5-1.5-0.8-2.2-0.8c-0.7,0-1.3,0.2-1.7,0.6c-0.3,0.4-0.5,0.8-0.5,1.3
			c0,0.5,0.2,0.9,0.5,1.3c0.3,0.3,0.9,0.7,1.9,1.2c0.6,0.3,1.1,0.6,1.3,0.7c0.3,0.2,0.5,0.4,0.7,0.6c0.5,0.6,0.8,1.2,0.8,2
			c0,0.6-0.2,1.1-0.5,1.6c-0.6,1-1.6,1.5-3,1.5C118,11.2,117.1,11,116.2,10.4 M99.4,5.6h1.3c0.6,0,1.2-0.1,1.5-0.3
			c0.4-0.2,0.7-0.5,1-0.8c0.3-0.4,0.4-0.9,0.4-1.4c0-0.7-0.2-1.3-0.7-1.8c-0.5-0.4-1.1-0.6-2-0.6l-1.5,0V5.6z M111.2,5.1l3.3,0
			c0,0.2,0,0.4,0,0.5v4.3c0,0.2,0,0.4,0.1,0.6c-0.9,0.3-1.5,0.5-2,0.6c-0.5,0.1-1,0.2-1.6,0.2c-1.6,0-2.8-0.5-3.7-1.4
			c-1-1.1-1.5-2.5-1.5-4.2c0-1.9,0.6-3.3,1.7-4.4c0.9-0.8,2.2-1.2,3.7-1.2c0.5,0,1,0,1.4,0.1c0.4,0.1,0.9,0.3,1.6,0.5v1
			c-1.1-0.6-2.1-1-3.1-1c-1.2,0-2.1,0.4-2.9,1.2c-0.4,0.5-0.8,1-0.9,1.5c-0.2,0.7-0.3,1.5-0.3,2.3c0,0.6,0.1,1.2,0.2,1.7
			c0.1,0.6,0.3,1,0.5,1.4c0.4,0.7,1,1.3,1.9,1.6c0.5,0.2,1.1,0.3,1.7,0.3c0.8,0,1.6-0.2,2.3-0.6l0-4.6h-2.2V5.1z M99.4,6.1v4.5
			c0,0.2,0,0.3,0.1,0.5l-1.1,0c0-0.2,0.1-0.4,0.1-0.5V0.7c0-0.2,0-0.4-0.1-0.5h2.9c0.7,0,1.4,0.2,2,0.5c1,0.5,1.4,1.3,1.4,2.4
			c0,0.9-0.3,1.6-0.9,2.1c-0.7,0.6-1.7,0.9-3,0.9H99.4z"/>
	</g>
	<g>
		<rect x="123.9" y="0.2" class="st3" width="6.6" height="10.7"/>
	</g>
</g>
</svg>
